<svg version="1.2" xmlns="http://www.w3.org/2000/svg" viewBox="0 0 193 189" width="193" height="189"><style>.a{fill:#130912}.b{fill:#e77917}.c{display:none;fill:none}</style><path fill-rule="evenodd" class="a" d="m-801.1 20.6q9.8 0 19.7 0.1 9.9 0.1 19.7 0.3 9.7 0.2 18.6 1l-1 14.4h-52.5q-7.1 0-10.3 3.3-3.3 3.3-3.3 10.7v33.8h-14.4v15h14.4v67.4h-17.8v-119.8q0-12.5 7.3-19.4 7.3-6.8 19.6-6.8zm-9.1 78.6v-15h58.4v15zm90.8-35.5h17v102.9h-17zm4.4-43.7h8.1q5.3 0 5.3 5.5v12q0 5.5-5.3 5.5h-8.1q-5.2 0-5.2-5.5v-12q0-5.5 5.2-5.5zm52.5 13.3h17.2v30.4h31.4v14.2h-31.4v60.4q0 7.4 3.1 10.6 3 3.2 10.3 3.2h15l2 13.7q-3.2 0.9-7.5 1.5-4.2 0.6-8.3 1-4 0.3-6.5 0.3-12.3 0-18.8-7.2-6.5-7.2-6.5-20.7v-62.8h-17.8v-13.1l17.8-1zm121.5 133.4h-17.8v-129.4h-45v-16.5h108v16.5h-45.2zm65.9-102.9h13.4l1.8 16.3q10.3-8.6 20.8-13.6 11-5.2 21.3-5.2h4.5l-2 16.9h-5.7q-8.7 0-17.4 3.6-8.1 3.5-19.5 9.6v75.3h-17.2zm127.9-2.5q10.9 0 18.5 3 7.6 3.1 11.4 10.3 3.9 7.2 3.9 19.7v72.5h-13.6l-2-17.2q-1.3 1.4-3 2.9-4.1 3.9-9.9 7.6-5.7 3.7-12.8 6.1-6.9 2.5-15 2.5-8.7 0-15.4-3.3-6.7-3.3-10.5-9.7-3.7-6.5-3.7-15.8v-11.2q0-12 7.2-18.7 7.2-6.6 20.1-6.6h41.2v-9.1q0-9.5-4.2-13.7-4.1-4.1-15.9-4.1-7.7 0-19.4 0.9-11.6 0.8-22.9 1.9l-1.7-13.4q6.9-1.2 15.1-2.3 8.2-1 16.8-1.7 8.5-0.6 15.8-0.6zm-21.7 55.8q-7.1 0.2-10 3.9-2.8 3.7-2.8 10.3v6.5q0 8 3.7 11.7 3.6 3.7 11.7 3.7 5.7 0 12.9-2.2 7.2-2.2 14.5-6.8 4.2-2.8 8.1-6.3v-21zm128.4-55.8q4.5 0 10 0.4 5.4 0.5 11.2 1.5 5.7 1.1 10.6 3l-2.2 11.6q-6.7-0.6-14.1-1-7.4-0.3-12.6-0.3-11.8 0-18.7 3.4-6.9 3.4-9.9 11.9-3.1 8.4-3.1 23.4 0 15 3.1 23.6 3 8.6 9.9 11.9 6.9 3.4 18.7 3.4 3 0 7.8-0.2 4.9-0.2 10.5-0.6 5.6-0.4 10.6-1.3l1.8 12.1q-7.4 2.7-16.3 4-8.8 1.2-17.5 1.2-17 0-27.3-5.2-10.4-5.3-14.9-17.2-4.6-11.8-4.6-31.7 0-19.8 4.6-31.7 4.7-11.8 15.1-17 10.3-5.2 27.3-5.2zm117.5 2.6h20.1l-31 37.8q-1.4 1.9-3.5 3.9-2 2-3.4 3.1v0.4q1.4 1.1 3.4 3.5 2.1 2.4 3.5 4.7l34.2 49.5h-20l-34.2-51.6h-13.3q0.3 2.6 0.5 5.1 0.4 5.9 0.4 11.4v35.1h-17.3v-148h17.3l0.2 65.8q0 6.5-0.5 12.2-0.3 2.6-0.6 5.3h13zm42.6 0h13.3l1.9 16.3q10.3-8.5 20.7-13.5 11.1-5.3 21.4-5.3h4.5l-2.1 16.9h-5.6q-8.7 0-17.5 3.7-8 3.4-19.4 9.5v75.4h-17.2z"/><path fill-rule="evenodd" class="b" d="m170.3 115.2l-53 52.9c-0.7 0.7-1.7 1.1-2.7 1.1-1 0-1.9-0.4-2.7-1.1l-17.7-17.7-17.7 17.7c-0.7 0.7-1.7 1.1-2.7 1.1-1 0-1.9-0.4-2.7-1.1l-53-52.9c-1.2-1.2-1.4-3.1-0.5-4.6l52.9-90c0.7-1.2 1.9-1.9 3.3-1.9 1.4 0 2.6 0.7 3.3 1.9l17.1 29 17.1-29.1c0.7-1.1 1.9-1.8 3.3-1.8 1.4 0 2.6 0.7 3.3 1.8l53 90.1c0.9 1.4 0.7 3.4-0.6 4.6zm-81.5 29.9l-29.9-29.9c-1.2-1.2-1.5-3.1-0.6-4.6l31.5-53.5-15.9-27.1-48.3 81.9 48.3 48.1zm-22.5-33.1l27.9 27.8 27.8-27.8-27.8-47.3zm96.5 0l-48.3-81.9-16 27.1 31.5 53.5c0.9 1.4 0.7 3.3-0.6 4.6l-29.9 29.8 15 15z"/><path fill-rule="evenodd" class="a" d="m-828 212.1h9.2v49.9h-9.2zm23.3 0h9.4l-13.7 22.6 14.8 27.4h-10.2l-14-26.7zm41.3 29.9q0 0.7-0.2 3.7h-19.8q0.3 5.9 2.1 8.3 1.8 2.3 5 2.3 2.3 0 4.1-0.7 1.8-0.8 3.9-2.4l3.7 5q-5.1 4.9-12.2 4.9-7.5 0-11.5-5.2-4.1-5.2-4.1-14.7 0-9.4 3.9-14.9 3.8-5.5 10.9-5.5 6.7 0 10.5 4.9 3.7 4.8 3.7 14.3zm-8.7-2.1v-0.5q0-5.4-1.3-7.9-1.3-2.5-4.2-2.5-2.7 0-4.1 2.4-1.4 2.5-1.7 8.5zm42.3 2.1q0 0.7-0.3 3.7h-19.7q0.3 5.9 2 8.3 1.8 2.3 5.1 2.3 2.2 0 4-0.7 1.8-0.8 3.9-2.4l3.7 5q-5 4.9-12.1 4.9-7.6 0-11.6-5.2-4-5.2-4-14.7 0-9.4 3.8-14.9 3.9-5.5 10.9-5.5 6.7 0 10.5 4.9 3.8 4.8 3.8 14.3zm-8.7-2.1v-0.5q0-5.4-1.3-7.9-1.3-2.5-4.2-2.5-2.7 0-4.1 2.4-1.4 2.5-1.7 8.5zm32.5-17.1q5.7 0 8.6 5.2 2.9 5.1 2.9 14.8 0 9.4-3.3 14.9-3.3 5.4-9.2 5.4-4.6 0-7.7-4.1v17.7l-8.9 1v-53.9h7.9l0.3 4.6q1.9-2.9 4.2-4.2 2.3-1.4 5.2-1.4zm-3.4 33.5q2.8 0 4.2-3.1 1.5-3.2 1.5-10.3 0-7.5-1.2-10.5-1.3-3-3.9-3-3.3 0-5.9 4.8v18.5q2.3 3.6 5.3 3.6zm21.6-32.5h8.9v38.2h-8.9zm4.4-19q2.4 0 3.9 1.5 1.4 1.5 1.4 3.9 0 2.3-1.4 3.8-1.5 1.5-3.9 1.5-2.4 0-3.9-1.5-1.5-1.5-1.5-3.8 0-2.4 1.5-3.9 1.5-1.5 3.9-1.5zm30.6 18q4.1 0 6.5 3 2.4 3 2.4 7.9v28.4h-8.9v-27.3q0-2.8-0.8-4-0.7-1.2-2.2-1.2-3 0-6 5.7v26.8h-8.9v-38.3h7.8l0.6 5q2-3 4.2-4.5 2.2-1.5 5.3-1.5zm43-3.9l2.2 6.9q-1.5 0.7-3.7 1-2.1 0.3-5.3 0.3 3.1 1.4 4.5 3.9 1.5 2.4 1.5 5.9 0 5.8-3.5 9.4-3.6 3.5-9.6 3.5-1.9 0-3.7-0.6-1.3 1.1-1.3 3 0 1.4 0.8 2.1 0.8 0.8 2.9 0.8h4.1q5.8 0 9.2 3 3.4 3 3.4 7.6 0 5.5-4.3 8.8-4.2 3.3-12 3.3-8.3 0-11.6-3.1-3.3-3-3.3-8.9h7.9q0 3.1 1.5 4.4 1.4 1.4 5.6 1.4 3.9 0 5.6-1.4 1.7-1.4 1.7-3.9 0-2.5-1.4-3.6-1.4-1.2-4.3-1.2h-2.7q-5.5 0-8.1-1.9-2.5-2-2.5-5.4 0-2 1-3.7 1.1-1.8 2.9-3.2-3-1.8-4.3-4.4-1.4-2.6-1.4-6.4 0-6.3 3.8-10 3.7-3.6 10.1-3.6 4.7 0 7.8-1 3.1-1 6.5-3zm-14.3 9.9q-2.5 0-3.8 1.8-1.3 1.8-1.3 5.7 0 3.7 1.3 5.7 1.3 2 3.7 2 2.6 0 3.8-1.8 1.2-1.7 1.2-5.9 0-3.9-1.2-5.7-1.2-1.8-3.7-1.8zm50.9 26.1l3.1 5.4q-3.5 2.9-8.3 2.9-5 0-7.6-2.9-2.6-2.8-2.6-7.8v-22.2h-4.5v-6.5h4.5v-8.4l8.9-1.1v9.5h7.2l-0.8 6.5h-6.4v22.2q0 3.5 3 3.5 0.9 0 1.6-0.3 0.7-0.2 1.9-0.8zm23.7-32q1.7 0 3 0.5l-1.5 8.5q-1.4-0.3-2.7-0.3-2.7 0-4.3 2.4-1.6 2.3-2.5 7v21.1h-8.9v-38.3h7.8l0.6 6.7q2.7-7.6 8.5-7.6zm31.6 29.9q0 1.9 0.5 2.8 0.5 0.9 1.6 1.5l-1.8 5.9q-2.9-0.3-4.7-1.6-1.8-1.2-2.7-3.7-3.3 5.5-9.3 5.5-4.8 0-7.6-3.3-2.8-3.2-2.8-8.5 0-6.2 3.8-9.5 3.9-3.2 11.3-3.2h3v-2.7q0-3.6-1.3-5.1-1.3-1.5-4.1-1.5-3.4 0-8.5 1.9l-2-5.8q2.9-1.3 6-2 3.1-0.7 6-0.7 12.6 0 12.6 12.8zm-14 3.9q3.5 0 5.3-4.8v-8h-2.1q-3.7 0-5.4 1.6-1.7 1.7-1.7 5.2 0 2.9 1 4.4 1 1.6 2.9 1.6zm36.1-33.9q3.1 0 5.7 1 2.5 1.1 4.8 3.3l-3.8 5.1q-1.6-1.4-3-2-1.4-0.6-3.1-0.6-3.3 0-4.9 3.1-1.7 3.1-1.7 10.4 0 7 1.7 9.9 1.7 2.9 4.9 2.9 1.6 0 2.9-0.5 1.3-0.6 3-1.9l4 5.2q-4.6 4.4-10.3 4.4-7.4 0-11.5-5-4.1-5.1-4.1-14.9 0-6.4 1.9-11 1.9-4.6 5.4-7 3.5-2.4 8.1-2.4zm14.9-14.4l8.9-0.9v54.5h-8.9zm19.6 15.3h8.7l-10.2 16.9 11.1 21.4h-9.6l-10.3-20.9zm41.2-1q7.2 0 11.2 5 4 5.1 4 15.1 0 9.5-4 14.9-4.1 5.3-11.2 5.3-7.2 0-11.3-5.2-4-5.3-4-15 0-9.7 4-14.9 4.1-5.2 11.3-5.2zm0 6.7q-3.2 0-4.6 3.1-1.5 3-1.5 10.3 0 7.3 1.5 10.3 1.4 3.1 4.6 3.1 3.1 0 4.5-3.1 1.5-3 1.5-10.3 0-7.3-1.5-10.4-1.4-3-4.5-3zm35.9-15.3q-2.1 0-3 1.1-1 1.1-1 3.3v5.2h7.3l-1 6.4h-6.3v31.8h-8.9v-31.8h-4.8v-6.4h4.8v-4.9q0-5.2 3-8.3 3.1-3.1 8.7-3.1 4.4 0 8.6 2.2l-2.5 5.8q-2.5-1.3-4.9-1.3zm48.6 9.6l-10.1 38.4q-1.9 6.9-6.1 10.9-4.2 4-11.2 4.6l-1-6.3q4.5-0.9 6.8-3 2.3-2 3.6-6.4h-3.3l-9.7-38.2h9l6.4 32.3 6.8-32.3zm17.8-1q7.3 0 11.3 5 4 5.1 4 15.1 0 9.5-4.1 14.9-4 5.3-11.2 5.3-7.1 0-11.2-5.2-4.1-5.3-4.1-15 0-9.7 4.1-14.9 4.1-5.2 11.2-5.2zm0 6.7q-3.1 0-4.5 3.1-1.5 3-1.5 10.3 0 7.3 1.5 10.3 1.4 3.1 4.5 3.1 3.1 0 4.6-3.1 1.4-3 1.4-10.3 0-7.3-1.4-10.4-1.5-3-4.6-3zm48.2-5.7v38.2h-7.8l-0.4-4.8q-1.8 2.9-4.1 4.4-2.2 1.5-5.2 1.5-4.2 0-6.6-3-2.4-2.9-2.4-7.7v-28.6h8.9v28.1q0 4.5 3 4.5 1.8 0 3.1-1.4 1.4-1.3 2.6-3.8v-27.4zm38.6 31l3.2 5.5q-3.6 2.8-8.4 2.8-5 0-7.6-2.9-2.6-2.8-2.6-7.7v-22.3h-4.5v-6.4h4.5v-8.5l8.9-1.1v9.6h7.3l-0.9 6.4h-6.4v22.3q0 3.4 3 3.4 0.9 0 1.7-0.2 0.7-0.3 1.8-0.9zm23.7-32q1.7 0 3 0.5l-1.4 8.6q-1.5-0.4-2.7-0.4-2.8 0-4.4 2.4-1.6 2.4-2.4 7.1v21h-8.9v-38.2h7.7l0.7 6.6q2.6-7.6 8.4-7.6zm31.6 30q0 1.8 0.5 2.7 0.5 1 1.7 1.5l-1.8 6q-3-0.4-4.8-1.6-1.8-1.3-2.6-3.8-3.4 5.5-9.4 5.5-4.8 0-7.6-3.2-2.8-3.2-2.8-8.6 0-6.2 3.9-9.5 3.8-3.2 11.2-3.2h3v-2.7q0-3.6-1.3-5.1-1.2-1.5-4.1-1.5-3.4 0-8.4 1.9l-2.1-5.8q2.9-1.3 6.1-2 3.1-0.6 5.9-0.6 12.6 0 12.6 12.7zm-14 3.9q3.5 0 5.3-4.8v-8h-2.1q-3.7 0-5.4 1.7-1.7 1.6-1.7 5.1 0 3 1 4.5 1 1.5 2.9 1.5zm22.4-32.9h8.9v38.2h-8.9zm4.4-19q2.4 0 3.9 1.5 1.5 1.5 1.5 3.9 0 2.3-1.5 3.8-1.5 1.5-3.9 1.5-2.4 0-3.8-1.5-1.5-1.5-1.5-3.8 0-2.4 1.5-3.9 1.4-1.5 3.8-1.5zm30.7 18q4.1 0 6.5 3 2.4 3 2.4 7.9v28.4h-8.9v-27.3q0-2.8-0.8-4-0.8-1.2-2.2-1.2-3.1 0-6 5.7v26.8h-8.9v-38.3h7.7l0.7 5q1.9-3 4.1-4.5 2.2-1.5 5.4-1.5zm16.9 1h8.9v38.3h-8.9zm4.4-19.1q2.4 0 3.9 1.5 1.5 1.5 1.5 3.9 0 2.3-1.5 3.8-1.5 1.6-3.9 1.6-2.4 0-3.9-1.6-1.4-1.5-1.4-3.8 0-2.4 1.4-3.9 1.5-1.5 3.9-1.5zm30.6 18.1q4.2 0 6.6 2.9 2.4 3 2.4 8v28.3h-9v-27.3q0-2.8-0.7-4-0.8-1.1-2.2-1.1-3.1 0-6 5.7v26.7h-8.9v-38.2h7.7l0.7 5q1.9-3.1 4.1-4.6 2.2-1.4 5.3-1.4zm43-3.9l2.2 6.8q-1.5 0.8-3.6 1-2.1 0.3-5.3 0.3 3 1.5 4.5 3.9 1.5 2.4 1.5 6 0 5.7-3.6 9.3-3.5 3.5-9.6 3.5-1.8 0-3.7-0.5-1.3 1-1.3 2.9 0 1.5 0.8 2.2 0.8 0.7 3 0.7h4q5.8 0 9.2 3 3.4 3 3.4 7.6 0 5.5-4.2 8.8-4.3 3.3-12.1 3.3-8.2 0-11.5-3-3.3-3.1-3.3-8.9h7.9q0 3.1 1.4 4.4 1.5 1.3 5.6 1.3 4 0 5.6-1.4 1.7-1.4 1.7-3.9 0-2.4-1.4-3.6-1.3-1.2-4.2-1.2h-2.8q-5.5 0-8-1.9-2.6-2-2.6-5.4 0-1.9 1.1-3.7 1-1.8 2.8-3.1-2.9-1.9-4.3-4.5-1.4-2.6-1.4-6.4 0-6.3 3.8-9.9 3.8-3.7 10.1-3.7 4.7 0 7.8-1 3.1-1 6.5-2.9zm-14.3 9.9q-2.5 0-3.8 1.8-1.3 1.8-1.3 5.7 0 3.7 1.3 5.7 1.3 1.9 3.8 1.9 2.5 0 3.7-1.7 1.3-1.8 1.3-6 0-3.9-1.2-5.7-1.2-1.7-3.8-1.7zm48.9-14.6q-2.1 0-3.1 1.1-0.9 1.1-0.9 3.3v5.2h7.3l-1 6.4h-6.3v31.8h-8.9v-31.8h-4.8v-6.4h4.8v-4.9q0-5.2 3-8.3 3-3.1 8.7-3.1 4.4 0 8.5 2.2l-2.4 5.8q-2.6-1.3-4.9-1.3zm20.9 8.6q7.3 0 11.3 5 4 5.1 4 15.1 0 9.5-4 14.9-4.1 5.3-11.3 5.3-7.1 0-11.2-5.2-4-5.3-4-15 0-9.7 4-14.9 4.1-5.2 11.2-5.2zm0 6.7q-3.1 0-4.5 3.1-1.5 3-1.5 10.3 0 7.3 1.5 10.3 1.4 3.1 4.5 3.1 3.2 0 4.6-3.1 1.5-3 1.5-10.3 0-7.3-1.5-10.4-1.4-3-4.6-3zm38.8-6.7q1.7 0 3 0.5l-1.5 8.6q-1.4-0.4-2.7-0.4-2.7 0-4.3 2.4-1.6 2.4-2.5 7.1v21h-8.9v-38.2h7.8l0.6 6.6q2.7-7.6 8.5-7.6zm48.4 1l-10.2 38.4q-1.9 6.9-6.1 10.9-4.2 4-11.2 4.6l-1-6.3q4.6-0.9 6.9-3 2.2-2 3.5-6.4h-3.3l-9.7-38.2h9l6.4 32.3 6.8-32.3zm17.8-1q7.3 0 11.3 5 4 5.1 4 15.1 0 9.5-4 14.9-4.1 5.3-11.3 5.3-7.1 0-11.2-5.2-4-5.3-4-15 0-9.7 4-14.9 4.1-5.2 11.2-5.2zm0 6.7q-3.1 0-4.5 3.1-1.5 3-1.5 10.3 0 7.3 1.5 10.3 1.4 3.1 4.5 3.1 3.2 0 4.6-3.1 1.5-3 1.5-10.3 0-7.3-1.5-10.4-1.4-3-4.6-3zm48.2-5.7v38.2h-7.7l-0.5-4.8q-1.8 2.9-4 4.4-2.3 1.5-5.2 1.5-4.2 0-6.7-3-2.4-2.9-2.4-7.7v-28.6h8.9v28.1q0 4.5 3.1 4.5 1.7 0 3.1-1.4 1.3-1.3 2.5-3.8v-27.4z"/><path class="c" d="m-828 18.7h999.4v259h-999.4z"/></svg>