<svg xmlns="http://www.w3.org/2000/svg" version="1.1" xmlns:xlink="http://www.w3.org/1999/xlink" xmlns:svgjs="http://svgjs.dev/svgjs" width="2000" height="518" viewBox="0 0 2000 518"><g transform="matrix(1,0,0,1,-0.5537623817402846,0.3700701948774281)"><svg viewBox="0 0 382 99" data-background-color="#fafafa" preserveAspectRatio="xMidYMid meet" height="518" width="2000" xmlns="http://www.w3.org/2000/svg" xmlns:xlink="http://www.w3.org/1999/xlink"><g id="tight-bounds" transform="matrix(1,0,0,1,0.10576861491239242,-0.07072770133757444)"><svg viewBox="0 0 381.7884627701752 99.14145540267515" height="99.14145540267515" width="381.7884627701752"><g><svg viewBox="0 0 381.7884627701752 99.14145540267515" height="99.14145540267515" width="381.7884627701752"><g><svg viewBox="0 0 381.7884627701752 99.14145540267515" height="99.14145540267515" width="381.7884627701752"><g id="textblocktransform"><svg viewBox="0 0 381.7884627701752 99.14145540267515" height="99.14145540267515" width="381.7884627701752" id="textblock"><g><svg viewBox="0 0 381.7884627701752 57.6008" height="57.6008" width="381.7884627701752"><g><svg><g></g><g></g></svg></g><g><svg><g><svg></svg></g><g></g></svg></g><g id="text-0"><svg viewBox="0 0 381.7884627701752 57.6008" height="57.6008" width="381.7884627701752"><g transform="matrix(1,0,0,1,0,0)"><svg width="309.1998" viewBox="4.25 -35 199.73 35.6" height="57.6008" data-palette-color="#ffffff"><g class="wordmark-text-0" data-fill-palette-color="primary"><path d="M10.9-34.55L10.9-34.55Q13.3-34.55 15.75-34.52 18.2-34.5 20.6-34.45 23-34.4 25.2-34.2L25.2-34.2 24.95-30.8 12-30.8Q10.25-30.8 9.45-30.03 8.65-29.25 8.65-27.5L8.65-27.5 8.65 0 4.25 0 4.25-28.35Q4.25-31.3 6.05-32.93 7.85-34.55 10.9-34.55ZM5.1-15.95L5.1-19.5 23.05-19.5 23.05-15.95 5.1-15.95ZM31.05-24.35L35.25-24.35 35.25 0 31.05 0 31.05-24.35ZM32.15-34.7L34.15-34.7Q35.45-34.7 35.45-33.4L35.45-33.4 35.45-30.55Q35.45-29.25 34.15-29.25L34.15-29.25 32.15-29.25Q30.85-29.25 30.85-30.55L30.85-30.55 30.85-33.4Q30.85-34.7 32.15-34.7L32.15-34.7ZM45.1-31.55L49.35-31.55 49.35-6.7Q49.35-4.95 50.1-4.2 50.85-3.45 52.65-3.45L52.65-3.45 56.35-3.45 56.85-0.2Q56.05 0 55 0.15 53.95 0.3 52.95 0.38 51.95 0.45 51.35 0.45L51.35 0.45Q48.3 0.45 46.7-1.25 45.1-2.95 45.1-6.15L45.1-6.15 45.1-31.55ZM45.5-24.35L57.1-24.35 57.1-21 40.7-21 40.7-24.1 45.5-24.35ZM70.69-34.5L75.09-34.5 75.09 0 70.69 0 70.69-34.5ZM59.59-34.5L86.24-34.5 86.24-30.6 59.59-30.6 59.59-34.5ZM91.34-24.35L94.64-24.35 95.19-19.7 95.59-18.95 95.59 0 91.34 0 91.34-24.35ZM105.49-24.95L106.59-24.95 106.09-20.95 104.69-20.95Q102.54-20.95 100.39-20.08 98.24-19.2 95.14-17.6L95.14-17.6 94.79-20.25Q97.49-22.45 100.22-23.7 102.94-24.95 105.49-24.95L105.49-24.95ZM122.89-24.95L122.89-24.95Q125.59-24.95 127.46-24.23 129.34-23.5 130.29-21.8 131.24-20.1 131.24-17.15L131.24-17.15 131.24 0 127.89 0 127.24-5.3 126.94-5.85 126.94-17.15Q126.94-19.4 125.91-20.38 124.89-21.35 121.99-21.35L121.99-21.35Q120.09-21.35 117.21-21.15 114.34-20.95 111.54-20.7L111.54-20.7 111.14-23.85Q112.84-24.15 114.86-24.4 116.89-24.65 118.99-24.8 121.09-24.95 122.89-24.95ZM116.79-15L129.24-15 129.19-11.8 117.54-11.75Q115.79-11.7 115.09-10.83 114.39-9.95 114.39-8.4L114.39-8.4 114.39-6.85Q114.39-4.95 115.29-4.08 116.19-3.2 118.19-3.2L118.19-3.2Q119.59-3.2 121.36-3.73 123.14-4.25 124.94-5.35 126.74-6.45 128.24-8.15L128.24-8.15 128.24-5Q127.69-4.3 126.66-3.38 125.64-2.45 124.21-1.58 122.79-0.7 121.06-0.13 119.34 0.45 117.34 0.45L117.34 0.45Q115.19 0.45 113.54-0.33 111.89-1.1 110.96-2.63 110.04-4.15 110.04-6.35L110.04-6.35 110.04-9Q110.04-11.85 111.81-13.43 113.59-15 116.79-15L116.79-15ZM149.24-24.95L149.24-24.95Q150.34-24.95 151.69-24.85 153.03-24.75 154.46-24.5 155.88-24.25 157.09-23.8L157.09-23.8 156.53-21.05Q154.88-21.2 153.06-21.28 151.24-21.35 149.94-21.35L149.94-21.35Q147.03-21.35 145.34-20.55 143.63-19.75 142.88-17.75 142.13-15.75 142.13-12.2L142.13-12.2Q142.13-8.65 142.88-6.63 143.63-4.6 145.34-3.8 147.03-3 149.94-3L149.94-3Q150.69-3 151.88-3.05 153.09-3.1 154.46-3.2 155.84-3.3 157.09-3.5L157.09-3.5 157.53-0.65Q155.69 0 153.51 0.3 151.34 0.6 149.19 0.6L149.19 0.6Q144.99 0.6 142.44-0.65 139.88-1.9 138.76-4.7 137.63-7.5 137.63-12.2L137.63-12.2Q137.63-16.9 138.78-19.7 139.94-22.5 142.49-23.73 145.03-24.95 149.24-24.95ZM178.23-24.35L183.18-24.35 175.53-15.4Q175.18-14.95 174.68-14.48 174.18-14 173.83-13.75L173.83-13.75 173.83-13.65Q174.18-13.4 174.68-12.83 175.18-12.25 175.53-11.7L175.53-11.7 183.98 0 179.03 0 169.38-13.95 178.23-24.35ZM163.28-35L167.53-35 167.58-19.45Q167.58-17.9 167.46-16.57 167.33-15.25 167.08-13.8L167.08-13.8Q167.33-12.4 167.43-11 167.53-9.6 167.53-8.3L167.53-8.3 167.53 0 163.28 0 163.28-35ZM166.03-15.3L171.68-15.3 171.68-12.2 166.03-12.2 166.03-15.3ZM188.73-24.35L192.03-24.35 192.58-19.7 192.98-18.95 192.98 0 188.73 0 188.73-24.35ZM202.88-24.95L203.98-24.95 203.48-20.95 202.08-20.95Q199.93-20.95 197.78-20.08 195.63-19.2 192.53-17.6L192.53-17.6 192.18-20.25Q194.88-22.45 197.6-23.7 200.33-24.95 202.88-24.95L202.88-24.95Z" fill="#ffffff" data-fill-palette-color="primary"></path></g></svg></g><g><svg xmlns="http://www.w3.org/2000/svg" xmlns:xlink="http://www.w3.org/1999/xlink" version="1.1" x="322.799" y="0" viewBox="11.017823632605118 11.459999999999999 37.963698158539415 37.07000000000001" style="enable-background:new 0 0 60 60;" xml:space="preserve" height="57.6008" width="58.98946277017525" class="icon-cg-0" data-fill-palette-color="accent" id="cg-0"><path d="M48.85 34.1L35.82 11.92c-0.17-0.29-0.47-0.46-0.81-0.46s-0.64 0.18-0.81 0.46L30 19.08l-4.21-7.15c-0.17-0.29-0.47-0.46-0.81-0.46s-0.64 0.18-0.81 0.46L11.15 34.1c-0.22 0.37-0.16 0.83 0.14 1.13l13.03 13.03c0.18 0.18 0.42 0.27 0.66 0.27s0.48-0.09 0.66-0.27L30 43.91l4.35 4.35c0.18 0.18 0.42 0.27 0.66 0.27s0.48-0.09 0.66-0.27l13.03-13.03C49.01 34.93 49.07 34.46 48.85 34.1zM24.99 46.28L13.13 34.42l11.86-20.18 3.93 6.68L21.17 34.1c-0.22 0.37-0.16 0.83 0.14 1.13l7.36 7.36L24.99 46.28zM30 22.77l6.85 11.65L30 41.27l-6.85-6.85L30 22.77zM35.01 46.28l-3.69-3.69 7.36-7.36c0.3-0.3 0.36-0.77 0.14-1.13l-7.74-13.17 3.93-6.68 11.86 20.18L35.01 46.28z" fill="#e77917" data-fill-palette-color="accent"></path></svg></g></svg></g></svg></g><g transform="matrix(1,0,0,1,0,71.1989664608)"><svg viewBox="0 0 381.7884627701752 27.942488941875144" height="27.942488941875144" width="381.7884627701752"><g transform="matrix(1,0,0,1,0,0)"><svg width="381.7884627701752" viewBox="3 -39.65 689.91 50.5" height="27.942488941875144" data-palette-color="#ffffff"><path d="M3-34.55L9.35-34.55 9.35 0 3 0 3-34.55ZM19.1-34.55L25.55-34.55 16.15-18.9 26.3 0 19.3 0 9.6-18.45 19.1-34.55ZM47.65-13.85Q47.65-13.4 47.5-11.3L47.5-11.3 33.85-11.3Q34.05-7.2 35.27-5.58 36.5-3.95 38.75-3.95L38.75-3.95Q40.3-3.95 41.55-4.48 42.8-5 44.25-6.15L44.25-6.15 46.8-2.65Q43.3 0.75 38.4 0.75L38.4 0.75Q33.2 0.75 30.42-2.85 27.65-6.45 27.65-13L27.65-13Q27.65-19.55 30.3-23.35 32.95-27.15 37.8-27.15L37.8-27.15Q42.45-27.15 45.05-23.78 47.65-20.4 47.65-13.85L47.65-13.85ZM41.65-15.3L41.65-15.65Q41.65-19.4 40.75-21.13 39.85-22.85 37.85-22.85L37.85-22.85Q36-22.85 35.02-21.18 34.05-19.5 33.85-15.3L33.85-15.3 41.65-15.3ZM70.8-13.85Q70.8-13.4 70.65-11.3L70.65-11.3 57-11.3Q57.2-7.2 58.42-5.58 59.65-3.95 61.9-3.95L61.9-3.95Q63.45-3.95 64.7-4.48 65.95-5 67.4-6.15L67.4-6.15 69.95-2.65Q66.45 0.75 61.55 0.75L61.55 0.75Q56.35 0.75 53.57-2.85 50.8-6.45 50.8-13L50.8-13Q50.8-19.55 53.45-23.35 56.1-27.15 60.95-27.15L60.95-27.15Q65.59-27.15 68.2-23.78 70.8-20.4 70.8-13.85L70.8-13.85ZM64.8-15.3L64.8-15.65Q64.8-19.4 63.9-21.13 63-22.85 61-22.85L61-22.85Q59.15-22.85 58.17-21.18 57.2-19.5 57-15.3L57-15.3 64.8-15.3ZM87.29-27.15Q91.19-27.15 93.19-23.58 95.19-20 95.19-13.3L95.19-13.3Q95.19-6.8 92.92-3.03 90.64 0.75 86.59 0.75L86.59 0.75Q83.39 0.75 81.24-2.1L81.24-2.1 81.24 10.15 75.09 10.85 75.09-26.45 80.54-26.45 80.79-23.25Q82.09-25.25 83.69-26.2 85.29-27.15 87.29-27.15L87.29-27.15ZM84.94-3.95Q86.84-3.95 87.84-6.13 88.84-8.3 88.84-13.25L88.84-13.25Q88.84-18.45 87.99-20.5 87.14-22.55 85.34-22.55L85.34-22.55Q83.04-22.55 81.24-19.25L81.24-19.25 81.24-6.45Q82.84-3.95 84.94-3.95L84.94-3.95ZM99.79-26.45L105.94-26.45 105.94 0 99.79 0 99.79-26.45ZM102.84-39.65Q104.49-39.65 105.52-38.6 106.54-37.55 106.54-35.9L106.54-35.9Q106.54-34.3 105.52-33.25 104.49-32.2 102.84-32.2L102.84-32.2Q101.19-32.2 100.17-33.25 99.14-34.3 99.14-35.9L99.14-35.9Q99.14-37.55 100.17-38.6 101.19-39.65 102.84-39.65L102.84-39.65ZM123.99-27.15Q126.84-27.15 128.49-25.1 130.14-23.05 130.14-19.6L130.14-19.6 130.14 0 123.99 0 123.99-18.9Q123.99-20.8 123.46-21.63 122.94-22.45 121.94-22.45L121.94-22.45Q119.84-22.45 117.79-18.5L117.79-18.5 117.79 0 111.64 0 111.64-26.45 116.99-26.45 117.44-23Q118.79-25.1 120.31-26.13 121.84-27.15 123.99-27.15L123.99-27.15ZM153.64-29.85L155.19-25.1Q154.14-24.6 152.66-24.4 151.19-24.2 148.99-24.2L148.99-24.2Q151.09-23.2 152.11-21.53 153.14-19.85 153.14-17.4L153.14-17.4Q153.14-13.4 150.69-10.95 148.24-8.5 144.04-8.5L144.04-8.5Q142.79-8.5 141.49-8.9L141.49-8.9Q140.59-8.15 140.59-6.85L140.59-6.85Q140.59-5.85 141.14-5.35 141.69-4.85 143.19-4.85L143.19-4.85 145.99-4.85Q149.99-4.85 152.34-2.78 154.69-0.7 154.69 2.5L154.69 2.5Q154.69 6.3 151.76 8.58 148.84 10.85 143.44 10.85L143.44 10.85Q137.74 10.85 135.46 8.75 133.19 6.65 133.19 2.6L133.19 2.6 138.64 2.6Q138.64 4.75 139.64 5.65 140.64 6.55 143.49 6.55L143.49 6.55Q146.24 6.55 147.39 5.6 148.54 4.65 148.54 2.9L148.54 2.9Q148.54 1.2 147.59 0.4 146.64-0.4 144.64-0.4L144.64-0.4 142.74-0.4Q138.94-0.4 137.19-1.75 135.44-3.1 135.44-5.45L135.44-5.45Q135.44-6.8 136.16-8.03 136.89-9.25 138.14-10.2L138.14-10.2Q136.09-11.5 135.14-13.3 134.19-15.1 134.19-17.7L134.19-17.7Q134.19-22.05 136.79-24.58 139.39-27.1 143.79-27.1L143.79-27.1Q147.04-27.1 149.16-27.8 151.29-28.5 153.64-29.85L153.64-29.85ZM143.79-23Q142.04-23 141.14-21.75 140.24-20.5 140.24-17.8L140.24-17.8Q140.24-15.25 141.14-13.88 142.04-12.5 143.74-12.5L143.74-12.5Q145.49-12.5 146.34-13.73 147.19-14.95 147.19-17.85L147.19-17.85Q147.19-20.55 146.36-21.78 145.54-23 143.79-23L143.79-23ZM178.93-5L181.08-1.2Q178.63 0.75 175.33 0.75L175.33 0.75Q171.88 0.75 170.08-1.23 168.28-3.2 168.28-6.6L168.28-6.6 168.28-22 165.18-22 165.18-26.45 168.28-26.45 168.28-32.3 174.43-33.05 174.43-26.45 179.43-26.45 178.83-22 174.43-22 174.43-6.6Q174.43-4.2 176.48-4.2L176.48-4.2Q177.13-4.2 177.63-4.38 178.13-4.55 178.93-5L178.93-5ZM195.28-27.1Q196.43-27.1 197.33-26.75L197.33-26.75 196.33-20.85Q195.33-21.1 194.48-21.1L194.48-21.1Q192.58-21.1 191.48-19.45 190.38-17.8 189.78-14.55L189.78-14.55 189.78 0 183.63 0 183.63-26.45 188.98-26.45 189.43-21.85Q191.28-27.1 195.28-27.1L195.28-27.1ZM217.08-6.4Q217.08-5.1 217.43-4.48 217.78-3.85 218.58-3.45L218.58-3.45 217.33 0.65Q215.28 0.4 214.05-0.45 212.83-1.3 212.23-3.05L212.23-3.05Q209.93 0.75 205.78 0.75L205.78 0.75Q202.48 0.75 200.53-1.48 198.58-3.7 198.58-7.4L198.58-7.4Q198.58-11.7 201.25-13.95 203.93-16.2 209.03-16.2L209.03-16.2 211.08-16.2 211.08-18.05Q211.08-20.55 210.2-21.58 209.33-22.6 207.38-22.6L207.38-22.6Q205.03-22.6 201.53-21.3L201.53-21.3 200.13-25.3Q202.13-26.2 204.28-26.68 206.43-27.15 208.38-27.15L208.38-27.15Q217.08-27.15 217.08-18.35L217.08-18.35 217.08-6.4ZM207.43-3.7Q209.83-3.7 211.08-7L211.08-7 211.08-12.55 209.63-12.55Q207.08-12.55 205.9-11.4 204.73-10.25 204.73-7.85L204.73-7.85Q204.73-5.8 205.43-4.75 206.13-3.7 207.43-3.7L207.43-3.7ZM232.37-27.15Q234.52-27.15 236.27-26.43 238.02-25.7 239.62-24.15L239.62-24.15 236.97-20.65Q235.87-21.55 234.9-21.98 233.92-22.4 232.77-22.4L232.77-22.4Q230.52-22.4 229.37-20.28 228.22-18.15 228.22-13.1L228.22-13.1Q228.22-8.2 229.4-6.2 230.57-4.2 232.77-4.2L232.77-4.2Q233.87-4.2 234.77-4.6 235.67-5 236.87-5.85L236.87-5.85 239.62-2.3Q236.42 0.75 232.47 0.75L232.47 0.75Q227.37 0.75 224.55-2.73 221.72-6.2 221.72-13L221.72-13Q221.72-17.4 223.02-20.6 224.32-23.8 226.75-25.48 229.17-27.15 232.37-27.15L232.37-27.15ZM242.67-37.05L248.82-37.7 248.82 0 242.67 0 242.67-37.05ZM256.17-26.45L262.17-26.45 255.17-14.75 262.77 0 256.17 0 249.07-14.45 256.17-26.45ZM284.57-27.15Q289.57-27.15 292.34-23.65 295.12-20.15 295.12-13.25L295.12-13.25Q295.12-6.65 292.32-2.95 289.52 0.75 284.57 0.75L284.57 0.75Q279.62 0.75 276.82-2.88 274.02-6.5 274.02-13.25L274.02-13.25Q274.02-19.95 276.82-23.55 279.62-27.15 284.57-27.15L284.57-27.15ZM284.57-22.5Q282.42-22.5 281.42-20.38 280.42-18.25 280.42-13.25L280.42-13.25Q280.42-8.2 281.42-6.08 282.42-3.95 284.57-3.95L284.57-3.95Q286.72-3.95 287.72-6.08 288.72-8.2 288.72-13.25L288.72-13.25Q288.72-18.3 287.72-20.4 286.72-22.5 284.57-22.5L284.57-22.5ZM309.36-33.05Q307.96-33.05 307.29-32.3 306.61-31.55 306.61-30L306.61-30 306.61-26.45 311.66-26.45 310.96-22 306.61-22 306.61 0 300.46 0 300.46-22 297.16-22 297.16-26.45 300.46-26.45 300.46-29.8Q300.46-33.4 302.56-35.55 304.66-37.7 308.56-37.7L308.56-37.7Q311.61-37.7 314.46-36.2L314.46-36.2 312.76-32.2Q311.01-33.05 309.36-33.05L309.36-33.05ZM342.96-26.45L335.96 0.1Q334.66 4.9 331.76 7.65 328.86 10.4 324.01 10.85L324.01 10.85 323.31 6.5Q326.46 5.85 328.03 4.42 329.61 3 330.51 0L330.51 0 328.21 0 321.51-26.45 327.76-26.45 332.16-4.1 336.86-26.45 342.96-26.45ZM355.26-27.15Q360.26-27.15 363.03-23.65 365.81-20.15 365.81-13.25L365.81-13.25Q365.81-6.65 363.01-2.95 360.21 0.75 355.26 0.75L355.26 0.75Q350.31 0.75 347.51-2.88 344.71-6.5 344.71-13.25L344.71-13.25Q344.71-19.95 347.51-23.55 350.31-27.15 355.26-27.15L355.26-27.15ZM355.26-22.5Q353.11-22.5 352.11-20.38 351.11-18.25 351.11-13.25L351.11-13.25Q351.11-8.2 352.11-6.08 353.11-3.95 355.26-3.95L355.26-3.95Q357.41-3.95 358.41-6.08 359.41-8.2 359.41-13.25L359.41-13.25Q359.41-18.3 358.41-20.4 357.41-22.5 355.26-22.5L355.26-22.5ZM388.5-26.45L388.5 0 383.15 0 382.85-3.35Q381.6-1.3 380.05-0.28 378.5 0.75 376.45 0.75L376.45 0.75Q373.55 0.75 371.88-1.3 370.2-3.35 370.2-6.65L370.2-6.65 370.2-26.45 376.35-26.45 376.35-7Q376.35-3.9 378.45-3.9L378.45-3.9Q379.65-3.9 380.6-4.83 381.55-5.75 382.35-7.45L382.35-7.45 382.35-26.45 388.5-26.45ZM415.2-5L417.35-1.2Q414.9 0.75 411.6 0.75L411.6 0.75Q408.15 0.75 406.35-1.23 404.55-3.2 404.55-6.6L404.55-6.6 404.55-22 401.45-22 401.45-26.45 404.55-26.45 404.55-32.3 410.7-33.05 410.7-26.45 415.7-26.45 415.1-22 410.7-22 410.7-6.6Q410.7-4.2 412.75-4.2L412.75-4.2Q413.4-4.2 413.9-4.38 414.4-4.55 415.2-5L415.2-5ZM431.55-27.1Q432.7-27.1 433.6-26.75L433.6-26.75 432.6-20.85Q431.6-21.1 430.75-21.1L430.75-21.1Q428.85-21.1 427.75-19.45 426.65-17.8 426.05-14.55L426.05-14.55 426.05 0 419.9 0 419.9-26.45 425.25-26.45 425.7-21.85Q427.55-27.1 431.55-27.1L431.55-27.1ZM453.34-6.4Q453.34-5.1 453.69-4.48 454.04-3.85 454.84-3.45L454.84-3.45 453.59 0.65Q451.54 0.4 450.32-0.45 449.09-1.3 448.49-3.05L448.49-3.05Q446.19 0.75 442.04 0.75L442.04 0.75Q438.74 0.75 436.79-1.48 434.84-3.7 434.84-7.4L434.84-7.4Q434.84-11.7 437.52-13.95 440.19-16.2 445.29-16.2L445.29-16.2 447.34-16.2 447.34-18.05Q447.34-20.55 446.47-21.58 445.59-22.6 443.64-22.6L443.64-22.6Q441.29-22.6 437.79-21.3L437.79-21.3 436.39-25.3Q438.39-26.2 440.54-26.68 442.69-27.15 444.64-27.15L444.64-27.15Q453.34-27.15 453.34-18.35L453.34-18.35 453.34-6.4ZM443.69-3.7Q446.09-3.7 447.34-7L447.34-7 447.34-12.55 445.89-12.55Q443.34-12.55 442.17-11.4 440.99-10.25 440.99-7.85L440.99-7.85Q440.99-5.8 441.69-4.75 442.39-3.7 443.69-3.7L443.69-3.7ZM459.14-26.45L465.29-26.45 465.29 0 459.14 0 459.14-26.45ZM462.19-39.65Q463.84-39.65 464.87-38.6 465.89-37.55 465.89-35.9L465.89-35.9Q465.89-34.3 464.87-33.25 463.84-32.2 462.19-32.2L462.19-32.2Q460.54-32.2 459.52-33.25 458.49-34.3 458.49-35.9L458.49-35.9Q458.49-37.55 459.52-38.6 460.54-39.65 462.19-39.65L462.19-39.65ZM483.34-27.15Q486.19-27.15 487.84-25.1 489.49-23.05 489.49-19.6L489.49-19.6 489.49 0 483.34 0 483.34-18.9Q483.34-20.8 482.81-21.63 482.29-22.45 481.29-22.45L481.29-22.45Q479.19-22.45 477.14-18.5L477.14-18.5 477.14 0 470.99 0 470.99-26.45 476.34-26.45 476.79-23Q478.14-25.1 479.66-26.13 481.19-27.15 483.34-27.15L483.34-27.15ZM495.04-26.45L501.19-26.45 501.19 0 495.04 0 495.04-26.45ZM498.09-39.65Q499.74-39.65 500.76-38.6 501.79-37.55 501.79-35.9L501.79-35.9Q501.79-34.3 500.76-33.25 499.74-32.2 498.09-32.2L498.09-32.2Q496.44-32.2 495.41-33.25 494.39-34.3 494.39-35.9L494.39-35.9Q494.39-37.55 495.41-38.6 496.44-39.65 498.09-39.65L498.09-39.65ZM519.23-27.15Q522.08-27.15 523.73-25.1 525.38-23.05 525.38-19.6L525.38-19.6 525.38 0 519.23 0 519.23-18.9Q519.23-20.8 518.71-21.63 518.18-22.45 517.18-22.45L517.18-22.45Q515.08-22.45 513.03-18.5L513.03-18.5 513.03 0 506.88 0 506.88-26.45 512.23-26.45 512.68-23Q514.03-25.1 515.56-26.13 517.08-27.15 519.23-27.15L519.23-27.15ZM548.88-29.85L550.43-25.1Q549.38-24.6 547.91-24.4 546.43-24.2 544.23-24.2L544.23-24.2Q546.33-23.2 547.36-21.53 548.38-19.85 548.38-17.4L548.38-17.4Q548.38-13.4 545.93-10.95 543.48-8.5 539.28-8.5L539.28-8.5Q538.03-8.5 536.73-8.9L536.73-8.9Q535.83-8.15 535.83-6.85L535.83-6.85Q535.83-5.85 536.38-5.35 536.93-4.85 538.43-4.85L538.43-4.85 541.23-4.85Q545.23-4.85 547.58-2.78 549.93-0.7 549.93 2.5L549.93 2.5Q549.93 6.3 547.01 8.58 544.08 10.85 538.68 10.85L538.68 10.85Q532.98 10.85 530.71 8.75 528.43 6.65 528.43 2.6L528.43 2.6 533.88 2.6Q533.88 4.75 534.88 5.65 535.88 6.55 538.73 6.55L538.73 6.55Q541.48 6.55 542.63 5.6 543.78 4.65 543.78 2.9L543.78 2.9Q543.78 1.2 542.83 0.4 541.88-0.4 539.88-0.4L539.88-0.4 537.98-0.4Q534.18-0.4 532.43-1.75 530.68-3.1 530.68-5.45L530.68-5.45Q530.68-6.8 531.41-8.03 532.13-9.25 533.38-10.2L533.38-10.2Q531.33-11.5 530.38-13.3 529.43-15.1 529.43-17.7L529.43-17.7Q529.43-22.05 532.03-24.58 534.63-27.1 539.03-27.1L539.03-27.1Q542.28-27.1 544.41-27.8 546.53-28.5 548.88-29.85L548.88-29.85ZM539.03-23Q537.28-23 536.38-21.75 535.48-20.5 535.48-17.8L535.48-17.8Q535.48-15.25 536.38-13.88 537.28-12.5 538.98-12.5L538.98-12.5Q540.73-12.5 541.58-13.73 542.43-14.95 542.43-17.85L542.43-17.85Q542.43-20.55 541.61-21.78 540.78-23 539.03-23L539.03-23ZM572.73-33.05Q571.33-33.05 570.65-32.3 569.98-31.55 569.98-30L569.98-30 569.98-26.45 575.03-26.45 574.33-22 569.98-22 569.98 0 563.83 0 563.83-22 560.53-22 560.53-26.45 563.83-26.45 563.83-29.8Q563.83-33.4 565.93-35.55 568.03-37.7 571.93-37.7L571.93-37.7Q574.98-37.7 577.83-36.2L577.83-36.2 576.13-32.2Q574.38-33.05 572.73-33.05L572.73-33.05ZM587.22-27.15Q592.22-27.15 595-23.65 597.77-20.15 597.77-13.25L597.77-13.25Q597.77-6.65 594.97-2.95 592.17 0.75 587.22 0.75L587.22 0.75Q582.27 0.75 579.47-2.88 576.67-6.5 576.67-13.25L576.67-13.25Q576.67-19.95 579.47-23.55 582.27-27.15 587.22-27.15L587.22-27.15ZM587.22-22.5Q585.07-22.5 584.07-20.38 583.07-18.25 583.07-13.25L583.07-13.25Q583.07-8.2 584.07-6.08 585.07-3.95 587.22-3.95L587.22-3.95Q589.37-3.95 590.37-6.08 591.37-8.2 591.37-13.25L591.37-13.25Q591.37-18.3 590.37-20.4 589.37-22.5 587.22-22.5L587.22-22.5ZM613.97-27.1Q615.12-27.1 616.02-26.75L616.02-26.75 615.02-20.85Q614.02-21.1 613.17-21.1L613.17-21.1Q611.27-21.1 610.17-19.45 609.07-17.8 608.47-14.55L608.47-14.55 608.47 0 602.32 0 602.32-26.45 607.67-26.45 608.12-21.85Q609.97-27.1 613.97-27.1L613.97-27.1ZM647.36-26.45L640.36 0.1Q639.06 4.9 636.16 7.65 633.26 10.4 628.41 10.85L628.41 10.85 627.71 6.5Q630.86 5.85 632.44 4.42 634.01 3 634.91 0L634.91 0 632.61 0 625.91-26.45 632.16-26.45 636.56-4.1 641.26-26.45 647.36-26.45ZM659.66-27.15Q664.66-27.15 667.44-23.65 670.21-20.15 670.21-13.25L670.21-13.25Q670.21-6.65 667.41-2.95 664.61 0.75 659.66 0.75L659.66 0.75Q654.71 0.75 651.91-2.88 649.11-6.5 649.11-13.25L649.11-13.25Q649.11-19.95 651.91-23.55 654.71-27.15 659.66-27.15L659.66-27.15ZM659.66-22.5Q657.51-22.5 656.51-20.38 655.51-18.25 655.51-13.25L655.51-13.25Q655.51-8.2 656.51-6.08 657.51-3.95 659.66-3.95L659.66-3.95Q661.81-3.95 662.81-6.08 663.81-8.2 663.81-13.25L663.81-13.25Q663.81-18.3 662.81-20.4 661.81-22.5 659.66-22.5L659.66-22.5ZM692.91-26.45L692.91 0 687.56 0 687.26-3.35Q686.01-1.3 684.46-0.28 682.91 0.75 680.86 0.75L680.86 0.75Q677.96 0.75 676.28-1.3 674.61-3.35 674.61-6.65L674.61-6.65 674.61-26.45 680.76-26.45 680.76-7Q680.76-3.9 682.86-3.9L682.86-3.9Q684.06-3.9 685.01-4.83 685.96-5.75 686.76-7.45L686.76-7.45 686.76-26.45 692.91-26.45Z" opacity="1" transform="matrix(1,0,0,1,0,0)" fill="#ffffff" class="slogan-text-1" data-fill-palette-color="secondary" id="text-1"></path></svg></g></svg></g></svg></g></svg></g><g></g></svg></g><defs></defs></svg><rect width="381.7884627701752" height="99.14145540267515" fill="none" stroke="none" visibility="hidden"></rect></g></svg></g></svg>